# xmcd CD Database Entry
#
# Track frame offsets:
# 150
# 16972
# 47648
# 67926
# 99029
# 114488
# 129196
# 156314
# 173785
# 188331
# 203844
# 225952
# 251001
# 274116
# 290341
# 317032
#
# Disc length: 4519 seconds
#
# Revision: 2
# Processed by: cddbd v1.4PL0 Copyright (c) Steve Scherf et al.
# Submitted via: tcd 2.0b
#
DISCID=c711a510
DTITLE=Неизвестный - Неизвестный
DYEAR=1900
DGENRE=
TTITLE0=Трек 1
TTITLE1=Трек 2
TTITLE2=Трек 3
TTITLE3=Трек 4
TTITLE4=Трек 5
TTITLE5=Трек 6
TTITLE6=Трек 7
TTITLE7=Трек 8
TTITLE8=Трек 9
TTITLE9=Трек 10
TTITLE10=Трек 11
TTITLE11=Трек 12
TTITLE12=Трек 13
TTITLE13=Трек 14
TTITLE14=Трек 15
TTITLE15=Трек 16
EXTD=
EXTT0=
EXTT1=
EXTT2=
EXTT3=
EXTT4=
EXTT5=
EXTT6=
EXTT7=
EXTT8=
EXTT9=
EXTT10=
EXTT11=
EXTT12=
EXTT13=
EXTT14=
EXTT15=
PLAYORDER=
